<?xml version="1.0" encoding="utf-8"?>
<!-- Generator: Adobe Illustrator 18.1.0, SVG Export Plug-In . SVG Version: 6.00 Build 0)  -->
<svg version="1.1" xmlns="http://www.w3.org/2000/svg" xmlns:xlink="http://www.w3.org/1999/xlink" x="0px" y="0px"
	 viewBox="0 0 81.6 25.8" enable-background="new 0 0 81.6 25.8" xml:space="preserve">
<g id="Слой_2" display="none">
</g>
<g id="Слой_1">
	<rect x="-164.9" y="-784.9" fill="#050A20" width="400" height="1120"/>
	<g>
		<path fill-rule="evenodd" clip-rule="evenodd" fill="none" stroke="#FFFFFF" stroke-miterlimit="10" d="M81,15.1
			c0,0.9,0,1.8,0,2.6c0,0.4-0.1,0.6-0.5,0.5c-0.2,0-0.3,0-0.5,0c-26,0-51.9,0-77.9,0c-0.8,0-1.1-0.2-1-1c0.1-0.7,0-1.4,0-2.2
			c0.3-0.3,0.7-0.2,1.1-0.2c2.2,0,4.4,0,6.6,0c0.4,0,0.7,0.1,1.1-0.2c-0.3-0.2-0.6-0.1-0.8-0.1c-2.3,0-4.6,0-6.9,0
			c-0.4,0-0.8,0.1-1.1-0.3c0-0.2,0-0.5,0-0.7c0.4-0.2,0.8-0.2,1.2-0.2c2.6,0,5.2,0,7.8,0c0.4,0,0.9,0.1,1.3-0.3
			c-0.3-0.2-0.5-0.1-0.8-0.1c-2.8,0-5.5,0-8.3,0c-0.4,0-0.8,0.1-1.1-0.2c0-0.2,0-0.4,0-0.6c0.3-0.3,0.8-0.3,1.2-0.3
			c2.9,0,5.8,0,8.7,0c0.4,0,0.8,0,1.2-0.1c-0.3-0.2-0.6-0.1-0.9-0.1c-3,0-6,0-9,0c-0.4,0-0.9,0.1-1.2-0.2c0-3.4,0-6.8,0-10.2
			c0-0.4,0.1-0.5,0.5-0.5c0.2,0,0.3,0,0.5,0c26,0,52,0,78,0c0.8,0,1,0.2,1,1C81,4.7,81,8,81,11.2c-0.3,0.3-0.7,0.2-1.1,0.2
			c-2.2,0-4.4,0-6.6,0c-0.4,0-0.8-0.1-1.2,0.2c0.3,0.2,0.5,0.1,0.8,0.1c2.3,0,4.7,0,7,0c0.4,0,0.8-0.1,1.1,0.3c0,0.2,0,0.4,0,0.6
			c-0.3,0.3-0.8,0.2-1.1,0.2c-2.6,0-5.2,0-7.8,0c-0.4,0-0.8-0.1-1.1,0.3c0.3,0.3,0.6,0.2,0.9,0.2c2.7,0,5.3,0,8,0
			c0.4,0,0.8-0.1,1.2,0.2c0,0.2,0,0.5,0,0.7c-0.3,0.3-0.8,0.3-1.2,0.3c-2.9,0-5.8,0-8.7,0c-0.4,0-0.8-0.1-1.2,0.2
			c0.2,0.2,0.5,0.1,0.8,0.1c3,0,6.1,0,9.1,0C80.2,14.8,80.7,14.7,81,15.1z"/>
		<path fill-rule="evenodd" clip-rule="evenodd" fill="none" stroke="#FFFFFF" stroke-miterlimit="10" d="M51.6,24.8
			c4,0,7.9,0,11.9,0c5.5,0,11.1,0,16.6,0c0.2,0,0.4,0,0.6,0c0.1,0,0.3,0,0.3,0.2c0,0.2-0.1,0.2-0.3,0.2c-0.1,0-0.3,0-0.4,0
			c-9.8,0-19.6,0-29.4,0c-0.1,0-0.3,0-0.4,0C50.8,24.8,51.2,24.8,51.6,24.8z"/>
		<path fill-rule="evenodd" clip-rule="evenodd" fill="none" stroke="#FFFFFF" stroke-miterlimit="10" d="M52.4,22.9
			c1.1,0,2.3,0,3.4,0c8.1,0,16.1,0,24.2,0c0.2,0,0.4,0,0.6,0c0.2,0,0.4,0,0.4,0.3c0,0.2-0.2,0.2-0.4,0.2c-0.2,0-0.4,0-0.6,0
			c-9.1,0-18.3,0-27.4,0C52.4,23.3,52.4,23.1,52.4,22.9z"/>
		<path fill-rule="evenodd" clip-rule="evenodd" fill="none" stroke="#FFFFFF" stroke-miterlimit="10" d="M29.2,23.4
			c-9,0-18.1,0-27.1,0c-0.3,0-1,0.2-1-0.2c0-0.5,0.6-0.3,1-0.3c8.8,0,17.7,0,26.5,0c0.3,0,0.6,0,0.9,0
			C29.6,23.2,29.6,23.4,29.2,23.4z"/>
		<path fill-rule="evenodd" clip-rule="evenodd" fill="none" stroke="#FFFFFF" stroke-miterlimit="10" d="M54.1,21.1
			c0.3,0,0.5-0.1,0.8-0.1c8.4,0,16.8,0,25.2,0c0.1,0,0.2,0,0.3,0c0.2,0,0.6-0.1,0.6,0.2c0,0.4-0.4,0.2-0.6,0.2c-8.7,0-17.5,0-26.2,0
			c-0.1,0-0.2,0-0.2,0C53.9,21.3,54,21.2,54.1,21.1z"/>
		<path fill-rule="evenodd" clip-rule="evenodd" fill="none" stroke="#FFFFFF" stroke-miterlimit="10" d="M27.9,25.2
			c-0.5,0-1,0-1.5,0c-8.1,0-16.2,0-24.3,0c-0.2,0-0.3,0-0.5,0c-0.2,0-0.6,0.1-0.6-0.2c0-0.4,0.4-0.2,0.6-0.2c6,0,12,0,18,0
			c2.8,0,5.6,0,8.5,0C28.2,25,28.1,25.1,27.9,25.2z"/>
		<path fill-rule="evenodd" clip-rule="evenodd" fill="none" stroke="#FFFFFF" stroke-miterlimit="10" d="M1.1,12.7
			c3.6,0,7.1,0,10.7,0c-0.2,0.7-0.6,0.9-1.2,0.9c-3.2,0-6.3,0-9.5,0C1.1,13.3,1.1,13,1.1,12.7z"/>
		<path fill-rule="evenodd" clip-rule="evenodd" fill="none" stroke="#FFFFFF" stroke-miterlimit="10" d="M81,13.6
			c-3.5,0-7.1,0-10.7,0c0.2-0.6,0.5-0.9,1.2-0.9c3.2,0,6.3,0,9.5,0C81,13,81,13.3,81,13.6z"/>
		<path fill-rule="evenodd" clip-rule="evenodd" fill="none" stroke="#FFFFFF" stroke-miterlimit="10" d="M30.6,21.6
			c-0.3,0-0.6-0.1-0.9-0.1c-9.3,0-18.5,0-27.8,0c-0.2,0-0.7,0.3-0.7-0.3C1.4,21,1.7,21.1,2,21.1c9.5,0,19,0,28.6,0
			c0.1,0,0.3,0,0.3,0.1C30.9,21.4,30.8,21.5,30.6,21.6z"/>
		<path fill-rule="evenodd" clip-rule="evenodd" fill="none" stroke="#FFFFFF" stroke-miterlimit="10" d="M1.1,11.2
			c3.9,0,7.8,0,11.8,0c-0.2,0.6-0.5,0.8-1.1,0.8c-3.6,0-7.1,0-10.7,0C1.1,11.8,1.1,11.5,1.1,11.2z"/>
		<path fill-rule="evenodd" clip-rule="evenodd" fill="none" stroke="#FFFFFF" stroke-miterlimit="10" d="M81,15.1
			c-3.9,0-7.8,0-11.8,0c0.2-0.7,0.5-0.8,1.1-0.8c3.5,0,7.1,0,10.6,0C81,14.5,81,14.8,81,15.1z"/>
		<path fill-rule="evenodd" clip-rule="evenodd" fill="none" stroke="#FFFFFF" stroke-miterlimit="10" d="M1.1,14.2
			c3.2,0,6.3,0,9.5,0c-0.1,0.6-0.5,0.8-1.1,0.8c-2.8,0-5.6,0-8.5,0C1.1,14.8,1.1,14.5,1.1,14.2z"/>
		<path fill-rule="evenodd" clip-rule="evenodd" fill="none" stroke="#FFFFFF" stroke-miterlimit="10" d="M81,12.1
			c-3.2,0-6.3,0-9.5,0c0.1-0.6,0.5-0.8,1.1-0.8c2.8,0,5.6,0,8.4,0C81,11.5,81,11.8,81,12.1z"/>
		<path fill-rule="evenodd" clip-rule="evenodd" fill="none" stroke="#FFFFFF" stroke-miterlimit="10" d="M42.1,25.2
			c-0.2,0-0.5,0-0.7,0c-0.1-0.1-0.1-0.3-0.1-0.4c0-0.4,0.4-0.9,0-1.1c-0.4-0.2-0.6,0.4-0.8,0.7c-0.1,0.2-0.3,0.3-0.4,0.5
			c-0.1,0.2-0.3,0.3-0.5,0.3c-0.2,0-0.4,0-0.7,0c-0.1-0.2,0-0.4,0.1-0.5c0.4-0.4,0.7-1,1-1.4c0.1-0.2,0.2-0.4,0.4-0.5
			c0.4-0.5,0.7-1,1.1-1.5c0.1-0.1,0.2-0.2,0.4-0.2c0.7,0,1.3,0,2,0c0.2,0,0.3,0.1,0.4,0.3c0.1,0.8-0.4,1.2-1,1.6
			c-0.2,0.2-0.6,0.2-0.7,0.5c-0.1,0.4-0.2,0.9-0.3,1.3C42.3,25,42.3,25.2,42.1,25.2z"/>
		<path fill-rule="evenodd" clip-rule="evenodd" fill="none" stroke="#FFFFFF" stroke-miterlimit="10" d="M31.7,25.2
			c-0.3,0-0.5,0-0.8,0c0-0.2,0.2-0.4,0.3-0.5c0.7-0.5,1.4-0.9,2.1-1.4c0.2-0.2,0.5-0.3,0.5-0.6c0-0.4,0-0.8,0.1-1.2
			c0.1-0.5,0.6-0.3,0.9-0.3c0.1,0,0.2,0.1,0.2,0.3c0.1,0.3,0,0.6,0.1,0.9c0.4-0.3,0.7-0.5,1-0.7c0.3-0.1,0.5-0.3,0.8-0.4
			c0.1,0,0.1,0,0.2,0c0.2,0,0.5-0.1,0.6,0.1c0.1,0.1-0.1,0.3-0.2,0.4c-0.7,0.5-1.4,0.9-2.1,1.4c-0.1,0.1-0.2,0.2-0.3,0.3
			c-0.2,0.6,0.1,1.3-0.2,1.9c-0.2,0-0.5,0-0.7,0C34,25.1,34,25,34,24.8c-0.1-0.2,0.1-0.6-0.1-0.7c-0.3-0.1-0.5,0.2-0.7,0.3
			c-0.2,0.1-0.4,0.3-0.6,0.5C32.3,25.1,32,25.2,31.7,25.2z"/>
		<path fill-rule="evenodd" clip-rule="evenodd" fill="none" stroke="#FFFFFF" stroke-miterlimit="10" d="M34.9,21.2
			c-0.4-0.1-0.7-0.2-0.8,0.3c-0.2,0.2-0.5,0.2-0.8,0.1c-0.3-0.3-0.8-0.2-1.1-0.2c-0.4,0-0.9,0.1-1.3-0.2c-9.9,0-19.8,0-29.7,0
			C1.3,20.9,1.6,21,1.8,21c11.5,0,22.9,0,34.4,0c0.2,0,0.5,0,0.7,0.1l0,0.1c0,0,0,0-0.1,0C36.2,21.4,35.5,21.5,34.9,21.2z"/>
		<path fill-rule="evenodd" clip-rule="evenodd" fill="none" stroke="#FFFFFF" stroke-miterlimit="10" d="M30.8,21.2
			c0.7-0.1,1.4,0,2.1-0.1c0.3,0,0.4,0.1,0.2,0.4c-0.3,0.5-0.7,0.3-1.1,0.4c-0.5,0-0.9,0.1-1.2,0.7c0.4,0.2,0.9-0.1,1.1,0.4
			c0,0.3-0.1,0.5-0.4,0.6c-0.3,0.1-0.6,0.1-0.9,0.1c-0.6,0-1,0.3-1.3,0.8c0.4,0.2,0.9-0.1,1.2,0.3c0.1,0.3-0.1,0.4-0.3,0.5
			c-0.8,0-1.6,0-2.4,0c0.1-0.1,0.1-0.3,0.2-0.4c0.4-0.4,0.8-0.9,1.1-1.4c0.1-0.2,0.2-0.3,0.3-0.5c0.3-0.5,0.7-0.9,1-1.4
			C30.7,21.4,30.8,21.3,30.8,21.2z"/>
		<path fill-rule="evenodd" clip-rule="evenodd" fill="none" stroke="#FFFFFF" stroke-miterlimit="10" d="M45.1,25.2
			c-0.8,0-1.6,0-2.4,0c-0.1-0.2,0-0.4,0.1-0.5c0.3-0.5,0.7-0.9,1-1.4c0.1-0.2,0.3-0.3,0.4-0.5c0.4-0.5,0.8-1,1.1-1.5
			c0.1-0.1,0.2-0.2,0.4-0.3c0.8,0,1.5,0,2.3,0c0.3,0.1,0.1,0.3,0.1,0.4c-0.3,0.4-0.8,0.3-1.2,0.3c-0.5,0-0.9,0.1-1.2,0.7
			c0.3,0.2,0.8-0.1,1,0.4c0,0.3-0.2,0.4-0.4,0.6c-0.2,0.1-0.5,0.1-0.7,0.1c-0.7-0.1-1.1,0.2-1.4,0.8c0.4,0.2,0.9-0.1,1.3,0.2
			C45.7,25,45.4,25.1,45.1,25.2z"/>
		<path fill-rule="evenodd" clip-rule="evenodd" fill="none" stroke="#FFFFFF" stroke-miterlimit="10" d="M36.1,25.2
			c-0.2,0-0.4,0-0.6,0c-0.1-0.2,0-0.4,0.1-0.5c0.3-0.5,0.7-0.9,1-1.4c0.1-0.2,0.2-0.4,0.4-0.5c0.4-0.4,0.6-0.9,1-1.4
			c0.3-0.5,0.8-0.3,1.3-0.3c0.3,0,0.7,0,1,0c0.2,0,0.4,0.1,0.5,0.3c0.1,0.7-0.4,1.1-0.8,1.6c-0.3,0.2-0.6,0.4-0.9,0.5
			c-0.2,0.1-0.4,0.2-0.6,0.2c-1-0.1-1.5,0.5-1.9,1.2C36.5,25.1,36.3,25.2,36.1,25.2z"/>
		<path fill-rule="evenodd" clip-rule="evenodd" fill="none" stroke="#FFFFFF" stroke-miterlimit="10" d="M49.7,21.1
			c0.5-0.1,0.9-0.1,1.4,0.1c0.2,0.1,0,0.3,0,0.4c-0.3,0.4-0.8,0.3-1.2,0.3c-0.3,0-0.6,0.1-0.7,0.4c-0.1,0.3,0.2,0.4,0.3,0.6
			c0.1,0.2,0.2,0.3,0.2,0.5c0,0.7-0.5,1.1-1,1.5c-0.3,0.2-0.7,0.3-1.1,0.4c-0.5,0.1-0.9,0.1-1.4,0c-0.2-0.2-0.1-0.4,0-0.6
			c0.3-0.4,0.7-0.2,1.1-0.2c0.8-0.1,1-0.3,0.9-1c-0.2-0.2-0.4-0.4-0.5-0.6c0-0.6,0.3-1,0.8-1.4c0.2-0.2,0.5-0.3,0.8-0.4
			C49.4,21.1,49.5,21.1,49.7,21.1z"/>
		<path fill-rule="evenodd" clip-rule="evenodd" fill="none" stroke="#FFFFFF" stroke-miterlimit="10" d="M54.1,21.1
			c0.1,0.2-0.1,0.3-0.1,0.4c-0.2,0.1-0.3,0.3-0.6,0.2c-0.2-0.1-0.5-0.1-0.7,0c-0.4,0-0.8,0.2-0.9,0.6c-0.1,0.4,0.4,0.5,0.6,0.7
			c0.1,0.1,0.1,0.3,0.2,0.4c-0.1,0.6-0.6,1-1,1.4c-0.3,0.2-0.7,0.3-1,0.5c-0.5,0.1-0.9,0.1-1.4,0c-0.3-0.2-0.1-0.4,0.1-0.6
			c0.4-0.3,0.9-0.2,1.3-0.2c0.7-0.1,0.8-0.4,0.6-1c-0.2-0.3-0.4-0.5-0.3-0.9c0.1-0.5,0.4-0.8,0.7-1.1c0.3-0.2,0.6-0.5,1-0.4
			C53.1,21,53.6,20.9,54.1,21.1z"/>
		<path fill-rule="evenodd" clip-rule="evenodd" fill="none" stroke="#FFFFFF" stroke-miterlimit="10" d="M49.7,21.1
			c-0.2,0-0.3,0.1-0.5,0.1c-0.4,0-0.7,0.3-1.1,0c-0.8-0.1-1.7-0.1-2.5,0c-0.5,0.3-1,0.2-1.5,0c-0.7-0.1-1.5-0.2-2.2,0
			c-0.5,0.3-1,0.2-1.4,0c-0.5,0-0.9,0-1.4-0.1c-0.4-0.1-0.7,0.1-1,0.5c-0.2,0.1-0.5,0.1-0.7-0.1c0.1-0.1,0.2-0.3,0.2-0.3
			c-0.2-0.2-0.4,0-0.6,0l0-0.1c1.2,0,2.3-0.1,3.5-0.1C43.5,21,46.6,21.1,49.7,21.1z"/>
		<path fill-rule="evenodd" clip-rule="evenodd" fill="none" stroke="#FFFFFF" stroke-miterlimit="10" d="M36.1,25.2
			c0.1-0.1,0.2-0.3,0.4-0.4c0.9-0.3,1.8-0.4,2.7,0c-0.1,0.1-0.1,0.3-0.2,0.4C38,25.2,37.1,25.2,36.1,25.2z"/>
		<path fill-rule="evenodd" clip-rule="evenodd" fill="none" stroke="#FFFFFF" stroke-miterlimit="10" d="M31.7,25.2
			c0.2-0.2,0.5-0.3,0.7-0.5c0.6-0.2,1.1-0.4,1.7,0c0,0.1,0,0.3,0.1,0.4C33.3,25.2,32.5,25.2,31.7,25.2z"/>
		<path fill-rule="evenodd" clip-rule="evenodd" fill="none" stroke="#FFFFFF" stroke-miterlimit="10" d="M39.7,25.2
			c0.1-0.1,0.2-0.3,0.3-0.4c0.5-0.2,0.9-0.3,1.4,0c0,0.1,0,0.3,0,0.4C40.8,25.2,40.2,25.2,39.7,25.2z"/>
		<path fill-rule="evenodd" clip-rule="evenodd" fill="none" stroke="#FFFFFF" stroke-miterlimit="10" d="M35.7,24.8
			c-0.1,0.1-0.1,0.3-0.2,0.4c-0.2,0-0.4,0-0.6,0c0.1-0.7-0.2-1.5,0.1-2.2c0.1,0.1,0.1,0.2,0.2,0.3C35.2,23.9,35.1,24.5,35.7,24.8z"
			/>
		<path fill-rule="evenodd" clip-rule="evenodd" fill="none" stroke="#FFFFFF" stroke-miterlimit="10" d="M49.2,24.8
			c0,0.1-0.2,0.3,0,0.4c-0.5,0-1.1,0-1.6,0c0.3-0.1,0.7-0.3,1-0.4C48.8,24.7,49,24.6,49.2,24.8z"/>
		<path fill-rule="evenodd" clip-rule="evenodd" fill="none" stroke="#FFFFFF" stroke-miterlimit="10" d="M52.6,21.1
			c-0.3,0.2-0.6,0.3-0.9,0.5c-0.3,0-0.5,0.1-0.7-0.1c0-0.1,0.1-0.2,0.1-0.3C51.6,21,52.1,21,52.6,21.1z"/>
		<path fill-rule="evenodd" clip-rule="evenodd" fill="none" stroke="#FFFFFF" stroke-miterlimit="10" d="M46.1,24.8
			c-0.1,0.1-0.1,0.3,0,0.4c-0.3,0-0.7,0-1,0c0.1-0.1,0.2-0.3,0.3-0.4C45.7,24.6,45.9,24.6,46.1,24.8z"/>
		<path fill-rule="evenodd" clip-rule="evenodd" fill="none" stroke="#FFFFFF" stroke-miterlimit="10" d="M42.9,24.8
			c-0.1,0.1-0.2,0.3-0.2,0.4c-0.2,0-0.4,0-0.6,0c0-0.1,0.1-0.3,0.1-0.4C42.5,24.6,42.7,24.6,42.9,24.8z"/>
		<path fill-rule="evenodd" clip-rule="evenodd" fill="none" stroke="#FFFFFF" stroke-miterlimit="10" d="M30.4,25.2
			c0.1-0.1,0.2-0.3,0.3-0.4c0.2-0.2,0.4-0.2,0.6,0c-0.1,0.1-0.3,0.3-0.4,0.4C30.7,25.2,30.6,25.2,30.4,25.2z"/>
		<path fill-rule="evenodd" clip-rule="evenodd" fill="#FFFFFF" d="M46.5,3.7c-1,1.3-1.8,2.5-2.8,3.8c1.1,0,2,0,2.9,0
			c0.3,0,0.4-0.2,0.6-0.4c0.7-1,1.5-2,2.2-3c0.2-0.2,0.3-0.5,0.7-0.4c2.3,0,4.6,0,7,0c-0.7,0.9-1.3,1.7-1.8,2.5
			c-0.9,1.2-1.8,2.4-2.7,3.7c-0.3,0.4-0.5,0.5-1,0.5c-5.5,0-11.1,0-16.6,0c-0.2,0-0.5,0.1-0.6-0.1c-0.1-0.2,0.1-0.4,0.2-0.5
			C36,7.9,37.4,6,38.8,4.2C38.9,4,39,3.7,39.4,3.7C41.7,3.7,44,3.7,46.5,3.7z"/>
		<path fill-rule="evenodd" clip-rule="evenodd" fill="#FFFFFF" d="M12.5,7.2C13.4,6,14.2,5,15,3.9c0.2-0.3,0.5-0.2,0.7-0.2
			c4.8,0,9.7,0,14.5,0c1,0,1.8,0.3,2.6,0.8c1.2,0.9,1.4,2.5,0.6,3.8c-0.9,1.7-2.2,2.3-4.1,2.1c-1-0.1-2,0-3,0
			c-0.3,0-0.8,0.1-0.9-0.2c-0.2-0.3,0.2-0.6,0.4-0.8c0.3-0.5,0.7-0.9,1-1.4c0.1-0.2,0.3-0.3,0.2-0.6c-0.1-0.3-0.4-0.2-0.6-0.2
			c-2.6,0-5.1,0-7.7,0C16.7,7.2,14.7,7.2,12.5,7.2z"/>
		<path fill-rule="evenodd" clip-rule="evenodd" fill="#FFFFFF" d="M31.3,11.2c-1.7,2.2-3.7,3.7-6.3,3.8c-4.4,0.1-8.8,0-13.2,0
			c-0.1-0.2,0.1-0.4,0.2-0.5c1.5-2,3-4,4.4-6.1C16.6,8.1,16.8,8,17.2,8C19.1,8,21,8,23,8c0.2,0,0.5-0.1,0.6,0.2
			c0.1,0.3-0.1,0.4-0.2,0.6c-0.4,0.5-0.7,1-1.1,1.5c-0.1,0.2-0.4,0.4-0.2,0.6c0.1,0.3,0.5,0.2,0.7,0.2c2,0,4,0,6,0
			C29.5,11.2,30.3,11.2,31.3,11.2z"/>
		<path fill-rule="evenodd" clip-rule="evenodd" fill="#FFFFFF" d="M70.7,11.2c-0.9,1.2-1.7,2.3-2.5,3.4c-0.2,0.3-0.4,0.4-0.8,0.4
			c-3.8,0-7.7,0-11.5,0c-0.7,0-1.5-0.1-2.2-0.5c-1-0.5-1.2-1.3-0.6-2.2c0.5-0.9,1.1-1.2,2.1-1.2c4.8,0.1,9.7,0,14.5,0
			C70,11.2,70.2,11.2,70.7,11.2z"/>
		<path fill-rule="evenodd" clip-rule="evenodd" fill="#FFFFFF" d="M54.5,10.4c1.3-1.8,2.6-3.3,3.6-5C59,4,60,3.5,61.6,3.7
			c1.8,0.2,3.7,0,5.6,0c-0.6,0.8-1.1,1.5-1.6,2.1c-1,1.4-2,2.7-3,4.1c-0.2,0.3-0.4,0.5-0.8,0.5C59.5,10.4,57.1,10.4,54.5,10.4z"/>
		<path fill-rule="evenodd" clip-rule="evenodd" fill="#FFFFFF" d="M41,11.2c-0.9,1.3-1.8,2.4-2.6,3.6c-0.1,0.2-0.3,0.2-0.5,0.2
			c-2.3,0-4.6,0-7.1,0c0.9-1.3,1.8-2.5,2.6-3.6c0.1-0.2,0.3-0.2,0.6-0.2C36.3,11.2,38.5,11.2,41,11.2z"/>
		<path fill-rule="evenodd" clip-rule="evenodd" fill="#FFFFFF" d="M41.4,15.1c0.9-1.3,1.8-2.4,2.6-3.6c0.1-0.2,0.3-0.2,0.5-0.2
			c2.3,0,4.6,0,7.1,0c-1,1.3-1.8,2.5-2.7,3.6c-0.2,0.2-0.4,0.2-0.6,0.2C46.1,15.1,43.8,15.1,41.4,15.1z"/>
		<path fill-rule="evenodd" clip-rule="evenodd" fill="none" stroke="#FFFFFF" stroke-miterlimit="10" d="M39.2,24.8
			c-0.9,0-1.8,0-2.7,0c0.4-1.4,1.7-1.2,2.7-1.4c0.4-0.1,0.7-0.3,1.1,0C40,23.9,39.6,24.4,39.2,24.8z"/>
		<path fill-rule="evenodd" clip-rule="evenodd" fill="none" stroke="#FFFFFF" stroke-miterlimit="10" d="M41.4,24.8
			c-0.5,0-0.9,0-1.4,0c0.3-0.4,0.5-0.7,0.8-1.1c0.2-0.3,0.5-0.4,0.8-0.3c0.4,0.1,0.2,0.4,0.1,0.7C41.6,24.3,41.5,24.6,41.4,24.8z"/>
		<path fill-rule="evenodd" clip-rule="evenodd" fill="none" stroke="#FFFFFF" stroke-miterlimit="10" d="M42.9,24.8
			c-0.2,0-0.5,0-0.7,0c0.1-0.5,0.2-0.9,0.3-1.4c0.5-0.2,1-0.4,1.4,0C43.6,23.9,43.3,24.4,42.9,24.8z"/>
		<path fill-rule="evenodd" clip-rule="evenodd" fill="none" stroke="#FFFFFF" stroke-miterlimit="10" d="M41.4,22.9
			c0.5-0.5,0.6-1.4,1.5-1.2c0.2,0,0.4,0,0.5,0.2c0.1,0.2-0.1,0.3-0.2,0.5C42.7,22.8,42.2,22.9,41.4,22.9z"/>
		<path fill-rule="evenodd" clip-rule="evenodd" fill="none" stroke="#FFFFFF" stroke-miterlimit="10" d="M45.4,21.5
			c-0.3,0.5-0.6,1-1.1,1.4c-0.4,0.2-0.7,0.3-1-0.1c0.4-0.4,0.9-0.7,1-1.4C44.7,21.2,45,21.2,45.4,21.5z"/>
		<path fill-rule="evenodd" clip-rule="evenodd" fill="none" stroke="#FFFFFF" stroke-miterlimit="10" d="M39.9,22.9
			c0.3-0.4,0.7-0.8,0.8-1.4c0.3-0.3,0.7-0.3,1,0c-0.3,0.5-0.6,1-1.1,1.4C40.4,23,40.1,23.1,39.9,22.9z"/>
		<path fill-rule="evenodd" clip-rule="evenodd" fill="none" stroke="#FFFFFF" stroke-miterlimit="10" d="M43.3,22.9
			c0.3,0,0.7,0,1,0.1c0,0.2-0.2,0.3-0.3,0.5c-0.5,0-0.9,0-1.4,0C42.6,22.9,43,23.1,43.3,22.9z"/>
		<path fill-rule="evenodd" clip-rule="evenodd" fill="none" stroke="#FFFFFF" stroke-miterlimit="10" d="M39.9,22.9
			c0.2,0,0.5,0,0.7,0.1c-0.1,0.2-0.2,0.3-0.3,0.5c-0.4,0-0.7,0-1.1,0C39.4,23.2,39.7,23,39.9,22.9z"/>
		<path fill-rule="evenodd" clip-rule="evenodd" fill="none" stroke="#FFFFFF" stroke-miterlimit="10" d="M45.4,21.5
			c-0.4,0-0.7,0-1.1,0c-0.1-0.1-0.1-0.2-0.2-0.3c0.5,0,1,0,1.5,0C45.5,21.3,45.4,21.4,45.4,21.5z"/>
		<path fill-rule="evenodd" clip-rule="evenodd" fill="none" stroke="#FFFFFF" stroke-miterlimit="10" d="M41.7,21.5
			c-0.3,0-0.6,0-1,0c-0.1-0.1-0.2-0.2-0.3-0.3c0.5,0,1,0,1.4,0C41.8,21.3,41.7,21.4,41.7,21.5z"/>
		<path fill-rule="evenodd" clip-rule="evenodd" fill="none" stroke="#FFFFFF" stroke-miterlimit="10" d="M31.3,24.8
			c-0.2,0-0.4,0-0.6,0c-0.5-0.3-1,0-1.5-0.2c0.3-1.4,1.4-1.3,2.5-1.3c0.6-0.2,1.2-0.4,1.8,0.1C32.8,24,32.1,24.4,31.3,24.8z"/>
		<path fill-rule="evenodd" clip-rule="evenodd" fill="none" stroke="#FFFFFF" stroke-miterlimit="10" d="M32,22.9
			c-0.4-0.3-0.9,0-1.4-0.2c0.3-0.7,0.6-1.2,1.5-1.1c0.4,0,0.8,0.1,1.1-0.1c0.3,0,0.5,0,0.8,0c0,0.5,0,0.9,0,1.4
			C33.3,23.2,32.6,23.3,32,22.9z"/>
		<path fill-rule="evenodd" clip-rule="evenodd" fill="none" stroke="#FFFFFF" stroke-miterlimit="10" d="M37.4,21.5
			c0.2,0,0.5,0.1,0.7,0.1c-0.3,0.5-0.7,0.9-1,1.4c-0.6,0.2-1.2,0.4-1.8-0.1C35.9,22.4,36.6,21.9,37.4,21.5z"/>
		<path fill-rule="evenodd" clip-rule="evenodd" fill="none" stroke="#FFFFFF" stroke-miterlimit="10" d="M34.1,24.8
			c-0.6,0-1.1,0-1.7,0c0.5-0.5,1-0.8,1.6-1.2C34.2,24,34.1,24.4,34.1,24.8z"/>
		<path fill-rule="evenodd" clip-rule="evenodd" fill="none" stroke="#FFFFFF" stroke-miterlimit="10" d="M32,22.9c0.7,0,1.4,0,2,0
			c-0.1,0.3-0.3,0.4-0.6,0.5c-0.6,0-1.2,0-1.8-0.1C31.7,23.2,31.9,23.1,32,22.9z"/>
		<path fill-rule="evenodd" clip-rule="evenodd" fill="none" stroke="#FFFFFF" stroke-miterlimit="10" d="M35.3,22.9
			c0.6,0,1.2,0,1.8,0.1c-0.1,0.2-0.2,0.3-0.3,0.5c-0.6,0.3-1.1,0.3-1.7,0c0-0.1,0-0.2,0-0.3C35.1,23,35.2,22.9,35.3,22.9z"/>
		<path fill-rule="evenodd" clip-rule="evenodd" fill="none" stroke="#FFFFFF" stroke-miterlimit="10" d="M36.4,21.6
			c-0.5,0.3-0.9,0.6-1.5,1.1c0-0.4,0-0.8,0-1.1C35.4,21.2,35.9,21.2,36.4,21.6z"/>
		<path fill-rule="evenodd" clip-rule="evenodd" fill="none" stroke="#FFFFFF" stroke-miterlimit="10" d="M36.4,21.6
			c-0.5-0.2-1,0-1.5-0.1c0-0.1,0-0.2,0-0.3c0.7,0,1.3,0,2,0C36.7,21.3,36.5,21.4,36.4,21.6z"/>
		<path fill-rule="evenodd" clip-rule="evenodd" fill="none" stroke="#FFFFFF" stroke-miterlimit="10" d="M46.1,24.8
			c-0.2,0-0.4,0-0.7,0c-0.5-0.3-1,0-1.5-0.2c0.3-1.4,1.4-1.3,2.5-1.3c0.6-0.3,1.2-0.2,1.9,0c0.5,0.2,0.4,0.5,0.1,0.9
			c-0.4,0.4-0.9,0.6-1.5,0.5C46.6,24.6,46.3,24.6,46.1,24.8z"/>
		<path fill-rule="evenodd" clip-rule="evenodd" fill="none" stroke="#FFFFFF" stroke-miterlimit="10" d="M48.6,21.6
			c-0.4,0.4-0.8,0.7-0.8,1.3c-0.4,0.3-0.7,0.3-1.1,0c-0.4-0.3-0.9,0-1.4-0.2c0.3-0.7,0.7-1.2,1.6-1.1c0.3,0.1,0.7,0.1,1.1-0.1
			C48.2,21.3,48.4,21.2,48.6,21.6z"/>
		<path fill-rule="evenodd" clip-rule="evenodd" fill="none" stroke="#FFFFFF" stroke-miterlimit="10" d="M46.7,22.9
			c0.4,0,0.7,0,1.1,0c0.1,0.2,0.3,0.3,0.4,0.5c-0.6,0-1.2,0-1.9,0C46.5,23.2,46.6,23.1,46.7,22.9z"/>
		<path fill-rule="evenodd" clip-rule="evenodd" fill="none" stroke="#FFFFFF" stroke-miterlimit="10" d="M48.6,21.6
			c-0.2,0-0.4-0.1-0.7-0.1c0.1-0.1,0.1-0.2,0.2-0.3c0.4,0,0.7,0,1.1,0C49,21.3,48.8,21.4,48.6,21.6z"/>
		<path fill-rule="evenodd" clip-rule="evenodd" fill="none" stroke="#FFFFFF" stroke-miterlimit="10" d="M35,23.4
			c0.6,0,1.1,0,1.7,0c-0.3,0.5-0.7,1-1.1,1.4C34.8,24.8,34.8,24.7,35,23.4z"/>
		<path fill-rule="evenodd" clip-rule="evenodd" fill="none" stroke="#FFFFFF" stroke-miterlimit="10" d="M37.8,22.9
			c0.5-0.5,0.5-1.3,1.4-1.3c0.2,0,0.4,0,0.5,0.2c0.1,0.2-0.1,0.4-0.2,0.6C39.1,22.9,38.6,23,37.8,22.9z"/>
		<path fill-rule="evenodd" clip-rule="evenodd" fill="none" stroke="#FFFFFF" stroke-miterlimit="10" d="M49.2,24.8
			c-0.2,0-0.4,0-0.7,0c0.4-0.4,0.8-0.8,1-1.4c0.6-0.4,1.2-0.3,1.8,0c0.5,0.2,0.4,0.5,0.1,0.9c-0.4,0.4-0.9,0.6-1.4,0.5
			C49.7,24.7,49.4,24.6,49.2,24.8z"/>
		<path fill-rule="evenodd" clip-rule="evenodd" fill="none" stroke="#FFFFFF" stroke-miterlimit="10" d="M51,21.5
			c0.2,0,0.5,0.1,0.7,0.1c-0.3,0.4-0.7,0.7-0.8,1.2c-0.5,0.5-1,0.4-1.5,0.2c-0.2-0.2-0.7-0.3-0.6-0.7c0.1-0.4,0.5-0.5,0.9-0.6
			C50.1,21.5,50.6,21.9,51,21.5z"/>
		<path fill-rule="evenodd" clip-rule="evenodd" fill="none" stroke="#FFFFFF" stroke-miterlimit="10" d="M49.4,23
			c0.5-0.1,1.1,0.1,1.5-0.2c0.1,0.2,0.3,0.4,0.4,0.6c-0.6,0-1.2,0-1.8,0C49.5,23.2,49.4,23.1,49.4,23z"/>
	</g>
</g>
</svg>
