<?xml version="1.0" encoding="utf-8"?>
<!-- Generator: Adobe Illustrator 18.1.0, SVG Export Plug-In . SVG Version: 6.00 Build 0)  -->
<svg version="1.1" xmlns="http://www.w3.org/2000/svg" xmlns:xlink="http://www.w3.org/1999/xlink" x="0px" y="0px"
	 viewBox="0 0 40 42" enable-background="new 0 0 40 42" xml:space="preserve">
<g id="Слой_2" display="none">
</g>
<g id="Слой_1">
	<g>
		<path fill="#29ABE2" d="M6.4,37.7c-0.8,0-1.5-0.6-1.8-1.7l-3.1-9.9h0v-10L3.6,23c0.5,1.6,1.2,1.9,1.7,1.9c0.5,0,1.2-0.3,1.7-1.9
			l6.9-22.5c2.6,0,18.6,0,21.6,0c0,4.7-0.1,11.4-0.1,12.6L8,37C7.5,37.4,6.9,37.7,6.4,37.7z"/>
		<path fill="#29ABE2" d="M14.3,1C17.6,1,31.2,1,35,1c0,4.4-0.1,10.3-0.1,11.8L7.7,36.6c-0.4,0.4-0.9,0.6-1.3,0.6
			c-0.6,0-1.1-0.5-1.3-1.3l-3-9.5L2,26.1v-6.6l1.2,3.7c0.6,1.9,1.5,2.3,2.1,2.3c0.7,0,1.6-0.4,2.1-2.3L14.3,1 M13.5,0l-7,22.8
			c-0.3,1.1-0.8,1.6-1.2,1.6c-0.4,0-0.9-0.5-1.2-1.6l-3-9.5c-0.1,0-0.1,0-0.1,0v13.3c0,0,0.1,0,0.1,0l3,9.5c0.4,1.3,1.3,2,2.3,2
			c0.6,0,1.3-0.3,1.9-0.8l27.5-24C35.9,13.3,36,0,36,0C36,0,13.6,0,13.5,0L13.5,0z"/>
	</g>
	<rect x="-40" y="-40" fill="#050A20" width="400" height="1120"/>
	<g>
		<g opacity="0.25">
			<path fill="#00A99D" d="M39,42H1c-0.6,0-1-0.4-1-1V3c0-0.6,0.4-1,1-1h38c0.6,0,1,0.4,1,1v38C40,41.6,39.6,42,39,42z"/>
		</g>
		<g>
			<path fill="#00A99D" d="M39,40H1c-0.6,0-1-0.4-1-1V1c0-0.6,0.4-1,1-1h38c0.6,0,1,0.4,1,1v38C40,39.6,39.6,40,39,40z"/>
		</g>
	</g>
	<g>
		<path fill="#FFFFFF" d="M30,21c0-1.1-0.9-2-2-2H12c-1.1,0-2,0.9-2,2v6c0,1.1,0.9,2,2,2h16c1.1,0,2-0.9,2-2V21z"/>
	</g>
	<circle fill="#FFFFFF" cx="20.2" cy="11.8" r="2.5"/>
	
		<polyline fill="none" stroke="#FFFFFF" stroke-width="2" stroke-linecap="square" stroke-linejoin="round" stroke-miterlimit="10" points="
		14.9,19 20.2,11.8 25.4,19 	"/>
	<g>
		<path fill="#050A20" d="M27,24c0,1.1-0.9,2-2,2H15c-1.1,0-2-0.9-2-2l0,0c0-1.1,0.9-2,2-2h10C26.1,22,27,22.9,27,24L27,24z"/>
	</g>
</g>
</svg>
