<?xml version="1.0" encoding="utf-8"?>
<!-- Generator: Adobe Illustrator 18.1.0, SVG Export Plug-In . SVG Version: 6.00 Build 0)  -->
<svg version="1.1" xmlns="http://www.w3.org/2000/svg" xmlns:xlink="http://www.w3.org/1999/xlink" x="0px" y="0px"
	 viewBox="0 0 23 17.2" enable-background="new 0 0 23 17.2" xml:space="preserve">
<g id="Слой_2" display="none">
</g>
<g id="Слой_1">
	<rect x="-48" y="-355" fill="#050A20" width="400" height="1120"/>
	<g>
		<path fill="#FFFFFF" d="M21.6,17.2H1.4c-0.4,0-0.7-0.1-1-0.4c-0.3-0.3-0.4-0.6-0.4-1V1.4c0-0.4,0.1-0.7,0.4-1C0.7,0.1,1,0,1.4,0
			h20.1c0.4,0,0.7,0.1,1,0.4C22.9,0.7,23,1,23,1.4v14.4c0,0.4-0.1,0.7-0.4,1C22.3,17.1,22,17.2,21.6,17.2z M10.8,7.2H3.6
			c-0.2,0-0.4,0.1-0.5,0.2C2.9,7.5,2.9,7.7,2.9,7.9c0,0.2,0.1,0.4,0.2,0.5c0.1,0.1,0.3,0.2,0.5,0.2h7.2c0.2,0,0.4-0.1,0.5-0.2
			c0.1-0.1,0.2-0.3,0.2-0.5c0-0.2-0.1-0.4-0.2-0.5C11.1,7.3,11,7.2,10.8,7.2z M10.8,10.1H3.6c-0.2,0-0.4,0.1-0.5,0.2
			c-0.1,0.1-0.2,0.3-0.2,0.5c0,0.2,0.1,0.4,0.2,0.5c0.1,0.1,0.3,0.2,0.5,0.2h7.2c0.2,0,0.4-0.1,0.5-0.2c0.1-0.1,0.2-0.3,0.2-0.5
			c0-0.2-0.1-0.4-0.2-0.5C11.1,10.1,11,10.1,10.8,10.1z M3.6,14.4h5.7c0.2,0,0.4-0.1,0.5-0.2c0.1-0.1,0.2-0.3,0.2-0.5
			c0-0.2-0.1-0.4-0.2-0.5c-0.1-0.1-0.3-0.2-0.5-0.2H3.6c-0.2,0-0.4,0.1-0.5,0.2c-0.1,0.1-0.2,0.3-0.2,0.5c0,0.2,0.1,0.4,0.2,0.5
			C3.2,14.3,3.4,14.4,3.6,14.4z M20.1,3.6c0-0.2-0.1-0.4-0.2-0.5c-0.1-0.1-0.3-0.2-0.5-0.2h-4.3c-0.2,0-0.4,0.1-0.5,0.2
			c-0.1,0.1-0.2,0.3-0.2,0.5v4.3c0,0.2,0.1,0.4,0.2,0.5c0.1,0.1,0.3,0.2,0.5,0.2h4.3c0.2,0,0.4-0.1,0.5-0.2c0.1-0.1,0.2-0.3,0.2-0.5
			V3.6z"/>
	</g>
</g>
</svg>
