<?xml version="1.0" encoding="utf-8"?>
<!-- Generator: Adobe Illustrator 18.1.0, SVG Export Plug-In . SVG Version: 6.00 Build 0)  -->
<svg version="1.1" xmlns="http://www.w3.org/2000/svg" xmlns:xlink="http://www.w3.org/1999/xlink" x="0px" y="0px"
	 viewBox="0 0 80 30.3" enable-background="new 0 0 80 30.3" xml:space="preserve">
<g id="Слой_2" display="none">
</g>
<g id="Слой_1">
	<rect x="-278.6" y="-781.5" fill="#050A20" width="400" height="1120"/>
	<g>
		<path fill="#FFFFFF" d="M30.8,11.6C30.8,11.6,30.8,11.6,30.8,11.6C30.8,11.6,30.8,11.6,30.8,11.6C30.8,11.6,30.8,11.6,30.8,11.6z"
			/>
		<polygon fill="#FFFFFF" points="56.3,22.3 56.3,22.3 56.3,22.3 56.3,22.3 56.3,22.3 		"/>
		<path fill="#FFFFFF" d="M30.2,13.4c0,0-0.1,0-0.1,0c0,0,0,0,0,0C30.1,13.4,30.2,13.4,30.2,13.4z"/>
		<path fill="#FFFFFF" d="M4.3,22c0.3,0,0.6,0,0.9,0c0,0,0,0,0,0C4.9,22,4.6,22,4.3,22z"/>
		<path fill="#FFFFFF" d="M23.5,26.2C23.5,26.2,23.6,26.2,23.5,26.2C23.6,26.2,23.6,26.2,23.5,26.2C23.5,26.2,23.5,26.2,23.5,26.2z"
			/>
		<path fill="#FFFFFF" d="M47,26.9C47,26.9,47,27,47,26.9C47,27,47,27,47,26.9C47.1,26.9,47.1,26.9,47,26.9C47,26.9,47,26.9,47,26.9
			z"/>
		<path fill="#FFFFFF" d="M3.8,13.4c-0.1,0-0.1,0-0.1,0C3.7,13.5,3.8,13.4,3.8,13.4C3.8,13.4,3.8,13.4,3.8,13.4z"/>
		<path fill="#FFFFFF" d="M79.2,25.8C79.2,25.8,79.2,25.8,79.2,25.8C79.2,25.8,79.2,25.8,79.2,25.8C79.2,25.8,79.2,25.7,79.2,25.8z"
			/>
		<path fill="#FFFFFF" d="M48.2,21.4C48.2,21.4,48.2,21.5,48.2,21.4C48.2,21.5,48.2,21.4,48.2,21.4C48.2,21.4,48.2,21.4,48.2,21.4z"
			/>
		<path fill="#FFFFFF" d="M3.7,13.5C3.7,13.5,3.7,13.5,3.7,13.5C3.7,13.5,3.7,13.5,3.7,13.5C3.7,13.5,3.7,13.5,3.7,13.5z"/>
		<polygon fill="#FFFFFF" points="4.1,20.7 4.1,20.7 4.1,20.7 		"/>
		<path fill="#FFFFFF" d="M50.6,27.7c-0.3,0-0.6,0-0.9,0C50,27.7,50.3,27.7,50.6,27.7C50.6,27.7,50.6,27.7,50.6,27.7z"/>
		<path fill="#FFFFFF" d="M29.1,13.6c0.6,0,1-0.1,1.2-0.1c0,0,0,0,0,0c0,0,0,0,0,0c0.3-0.2,0.4-0.5,0.5-1.4c0-0.1,0-0.2,0-0.3
			c0.1-0.3,0.2-0.7,0.2-1c0-0.1,0-0.1,0-0.2c0.3-1.1,0.5-2.3,0.7-3.4c0-0.2,0.1-0.4,0.1-0.6c0-0.1,0-0.1,0-0.2
			c0.3-0.6,0.2-1.4,0.5-2.1c0.4,1.3,0.9,2.5,1.3,3.7c0,0.2,0,0.3,0.1,0.5c0.4,1.2,0.8,2.5,1.2,3.7c0.2,0.5,0.2,1.2,0.6,1.5
			c0.4,0.2,1,0.1,1.6,0.1c1,0,1,0,1.1-0.9c0,0,0-0.1,0-0.1c0.1-0.2,0.1-0.4,0.1-0.6c0.2-0.3,0.2-0.7,0.2-1.1c0-0.1,0-0.1,0-0.2
			c0.3-1.1,0.5-2.3,0.7-3.4c0-0.1,0-0.1,0-0.2c0.1-0.4,0.2-0.7,0.2-1.1c0-0.1,0-0.1,0-0.2c0.3-1.1,0.5-2.3,0.7-3.4
			c0-0.2,0.1-0.4,0.1-0.6c0-0.2,0.1-0.5,0.1-0.7c0-0.2,0.4-0.6-0.2-0.6c-0.7,0-1.3-0.1-2,0c-0.3,1.1-0.5,2.2-0.7,3.4
			c-0.1,0.2-0.1,0.4-0.1,0.6c0,0.1,0,0.1,0,0.2c-0.2,0.4-0.3,0.8-0.2,1.2c-0.4,1.1-0.3,2.4-0.9,3.6c-0.2-0.5-0.3-0.9-0.4-1.3
			c-0.8-2.5-1.7-5.1-2.5-7.6c0-0.1-0.1-0.2-0.2-0.2c-0.8,0-1.6,0-2.4,0c-0.4,1-0.5,2.2-0.7,3.2c0,0.2-0.1,0.4-0.1,0.6
			c0,0.1,0,0.1,0,0.2C29.6,6,29.3,7.6,29,9.2c0,0.1,0,0.1,0,0.2v0c-0.4,1.2-0.5,2.4-0.7,3.6c-0.2,0.1-0.1,0.3-0.1,0.5
			C28.5,13.7,28.8,13.6,29.1,13.6z M30.8,11.6C30.8,11.6,30.8,11.6,30.8,11.6C30.8,11.6,30.8,11.6,30.8,11.6
			C30.8,11.6,30.8,11.6,30.8,11.6z M30.2,13.4c0,0-0.1,0-0.1,0c0,0,0,0,0,0C30.1,13.4,30.2,13.4,30.2,13.4z"/>
		<path fill="#FFFFFF" d="M19.4,13.9c0.4,0.1,0.8,0.1,1.2,0c2.1-0.2,3.8-1.2,5-2.9c1.4-2.1,1.9-4.4,1.8-6.9
			c-0.1-1.6-0.8-2.9-2.4-3.5c-2.2-1-4.4-0.5-6.3,0.8c-2.5,1.7-3.2,4.4-3.5,7.2c-0.1,0.3-0.1,0.6,0,1C15.4,12,17.1,13.8,19.4,13.9z
			 M19.5,3.8c0.7-0.9,1.7-1.4,2.8-1.4c1.3,0,2.3,0.9,2.6,2.3c0,0.1,0,0.3,0.1,0.4c0,0.2,0.2,0.4,0,0.7c-0.2,0.7-0.2,1.5-0.4,2.2
			c-0.5,1.5-1.2,2.9-2.8,3.5c-2,0.7-3.6-0.3-3.7-2.5C17.9,7.1,18.3,5.3,19.5,3.8z"/>
		<path fill="#FFFFFF" d="M66.8,16.7c-0.9-0.4-1.8-0.4-2.8-0.4c-2.7,0.1-4.6,1.8-5,4.5c-0.2,1.5,0.3,2.5,1.7,3
			c0.5,0.2,1,0.3,1.5,0.5c0.8,0.2,1.6,0.4,2.4,0.7c0.6,0.3,0.8,0.7,0.7,1.4c-0.1,0.5-0.4,0.9-0.9,1.2c-0.7,0.4-1.5,0.4-2.3,0.4
			c-1.1,0-1.9-0.6-1.8-1.8c0-0.2,0-0.3-0.3-0.3c-0.6,0-1.3,0-1.9,0c-0.2,0-0.3,0.1-0.3,0.2c-0.3,1.1,0.2,2.6,1.1,3.3
			c0.8,0.6,1.7,0.8,2.6,0.8c0.4,0.1,0.8,0.1,1.2,0c0.4,0,0.8-0.1,1.1-0.1c2.2-0.5,3.8-2.2,4-4.3c0.1-0.4,0.2-0.9,0-1.3
			c-0.2-1.1-1.1-1.6-2.1-1.9c-1.1-0.4-2.3-0.6-3.4-1c-0.8-0.2-1-0.7-0.8-1.5c0.1-0.4,0.4-0.7,0.8-1c0.7-0.4,1.4-0.5,2.1-0.4
			c1.1,0.1,1.5,0.5,1.6,1.6c0,0.2,0.1,0.3,0.3,0.3c0.6,0,1.2,0,1.9,0c0.2,0,0.3,0,0.3-0.2C68.9,19,68.1,17.3,66.8,16.7z"/>
		<path fill="#FFFFFF" d="M9.9,21.8c-1.8,0-3.5,0-5.3,0c-0.2,0-0.4,0.1-0.6-0.1c0.1-0.1,0.1-0.3,0.1-0.5c0-0.1,0-0.2,0-0.2
			c0.2-0.4,0.2-0.9,0.3-1.4C4.6,19.1,4.8,19,5.2,19c1.8,0,3.6,0,5.4,0c0.2,0,0.5,0.1,0.5-0.3c0.1-0.6,0.2-1.2,0.3-1.9
			c-0.1-0.3-0.3-0.2-0.5-0.2c-1.8,0-3.5,0-5.3,0c-1,0-2.1-0.1-3.1,0c-0.2,0.1-0.1,0.2-0.1,0.4c0,0.2-0.1,0.4-0.1,0.6
			c-0.1,0.2-0.2,0.4-0.1,0.6c-0.3,1.1-0.5,2.1-0.6,3.2c-0.2,0.3-0.2,0.7-0.2,1.1c-0.1,0.2-0.1,0.4-0.1,0.6c-0.3,1-0.5,2.1-0.6,3.1
			c-0.1,0.1-0.1,0.3-0.1,0.5c0,0.1,0,0.2,0,0.2c-0.2,0.8-0.4,1.6-0.5,2.4c-0.2,0.4-0.1,0.5,0.3,0.5c2.8,0,5.6,0,8.4,0
			c0.5,0,0.5-0.2,0.5-0.6C9.6,29,9.5,28.5,9.6,28l0,0c0.2-0.3,0.1-0.5-0.3-0.5c-1.7,0-3.4,0-5.1,0c-0.4,0-0.9,0.1-1.2-0.1
			c-0.2-0.2,0.1-0.6,0.1-1c0.1-0.2,0.1-0.4,0.1-0.6c0.2-0.4,0.2-0.8,0.3-1.2c0.1-0.4,0.2-0.5,0.7-0.5c1.7,0,3.3,0,5,0
			c0.3,0,0.5-0.1,0.5-0.4c0.1-0.5,0.2-1.1,0.3-1.6c0-0.1,0-0.2,0-0.2C10,21.9,10,21.8,9.9,21.8C10,21.8,9.9,21.8,9.9,21.8z
			 M4.1,20.7C4.1,20.7,4.1,20.7,4.1,20.7L4.1,20.7C4.1,20.7,4.1,20.7,4.1,20.7z M4.3,22c0.3,0,0.6,0,0.8,0c0,0,0,0,0,0
			C4.9,22,4.6,22,4.3,22z"/>
		<path fill="#FFFFFF" d="M56.1,21.8c-1.8,0-3.5,0-5.3,0c-0.2,0-0.4,0.1-0.6-0.1c0.1-0.1,0.1-0.3,0.1-0.5c0-0.1,0-0.2,0-0.2
			c0.2-0.4,0.2-0.9,0.3-1.4c0.1-0.5,0.3-0.6,0.7-0.6c1.8,0,3.6,0,5.4,0c0.2,0,0.5,0.1,0.5-0.3c0.1-0.6,0.2-1.2,0.3-1.9
			c-0.1-0.3-0.3-0.2-0.5-0.2c-1.8,0-3.5,0-5.3,0c-1,0-2.1-0.1-3.1,0c-0.2,0.1-0.1,0.2-0.1,0.4c0,0.2-0.1,0.4-0.1,0.6
			c-0.1,0.2-0.2,0.4-0.1,0.6c-0.3,1.1-0.5,2.1-0.6,3.2c-0.2,0.3-0.2,0.7-0.2,1.1c-0.1,0.2-0.1,0.4-0.1,0.6c-0.3,1-0.5,2.1-0.6,3.1
			c-0.1,0.1-0.1,0.3-0.1,0.5c0,0.1,0,0.2,0,0.2c-0.2,0.8-0.4,1.6-0.5,2.4c-0.2,0.4-0.1,0.5,0.3,0.5c2.8,0,5.6,0,8.4,0
			c0.5,0,0.5-0.2,0.5-0.6c0.3-0.4,0.3-0.9,0.3-1.3l0,0c0.2-0.3,0.1-0.5-0.3-0.5c-1.7,0-3.4,0-5.1,0c-0.4,0-0.9,0.1-1.2-0.1
			c-0.2-0.2,0.1-0.6,0.1-1c0.1-0.2,0.1-0.4,0.1-0.6c0.2-0.4,0.2-0.8,0.3-1.2c0.1-0.4,0.2-0.5,0.7-0.5c1.7,0,3.3,0,5,0
			c0.3,0,0.5-0.1,0.5-0.4c0.1-0.5,0.2-1.1,0.3-1.6c0-0.1,0-0.2,0-0.2C56.2,21.9,56.2,21.8,56.1,21.8C56.2,21.8,56.2,21.8,56.1,21.8z
			 M50.4,20.7C50.4,20.7,50.4,20.7,50.4,20.7L50.4,20.7C50.4,20.7,50.4,20.7,50.4,20.7z M50.6,22c0.3,0,0.6,0,0.8,0c0,0,0,0,0,0
			C51.2,22,50.9,22,50.6,22z"/>
		<path fill="#FFFFFF" d="M18.7,23.6c-0.1-0.4-0.1-0.6,0.1-1c1.5-1.9,2.9-3.7,4.4-5.6c0.1-0.1,0.3-0.3-0.1-0.3c-0.4,0-0.7,0-1.1,0
			c-0.5,0-1.1-0.2-1.6,0.1c-1,1.3-2,2.7-3,4.1c-0.2-0.6-0.4-1.2-0.6-1.8c-0.3-0.8-0.4-1.7-0.9-2.4c-0.9,0-1.8,0-2.7,0
			c-0.1,0-0.2,0-0.2,0.2c0.6,1.6,1.1,3.3,1.8,4.8c0.5,1.1,0.3,1.9-0.5,2.8c-1.4,1.6-2.6,3.3-3.9,5c-0.1,0.1-0.3,0.2-0.2,0.5
			c1-0.1,1.9,0.1,2.9-0.1c1.1-1.4,2.2-2.9,3.3-4.4c0.2,0.6,0.3,1,0.5,1.5c0.3,1,0.5,2,1,2.9c0.9,0.2,1.9,0,2.8,0.1
			c0.3,0,0.2-0.2,0.1-0.3C20.2,27.6,19.5,25.6,18.7,23.6z"/>
		<path fill="#FFFFFF" d="M31.4,16.7c-2,0-4,0-6,0c-0.1,0-0.1,0-0.2,0.1c-0.2,0.3-0.2,0.6-0.2,1c-0.1,0.2-0.2,0.5-0.1,0.7
			c-0.2,0.6-0.3,1.3-0.4,1.9c-0.1,0.2-0.1,0.4-0.1,0.6c-0.1,0.1-0.1,0.3-0.1,0.5c0,0.1,0,0.1,0,0.2c-0.3,1.2-0.5,2.4-0.7,3.6
			c-0.1,0.2-0.1,0.5-0.1,0.7c-0.1,0.3-0.2,0.7-0.2,1c0,0.2-0.1,0.4-0.1,0.6c-0.1,0.3-0.2,0.5-0.2,0.8c-0.2,0.3-0.2,0.7-0.2,1.1
			c-0.1,0.2-0.1,0.3,0.2,0.3c0.7,0,1.5,0.1,2.2-0.1c0.4-1.2,0.5-2.5,0.8-3.8c0.2-0.9,0.2-0.9,1.1-0.9c0.9,0,1.8,0.1,2.7-0.1
			c0.2,0,0.5,0,0.7-0.1c0.4,0,0.7-0.2,1-0.4c1.8-1.2,2.5-2.9,2.4-5C33.9,17.9,33,16.9,31.4,16.7z M23.5,26.2
			C23.5,26.2,23.5,26.2,23.5,26.2C23.6,26.2,23.6,26.2,23.5,26.2C23.6,26.2,23.5,26.2,23.5,26.2z M31.4,20.6c-0.1,1.2-0.6,2-1.8,2.3
			c-1,0.1-1.9,0.1-2.9,0c0.2-1.1,0.4-2.1,0.6-3.2c0.1-0.5,0.2-0.7,0.8-0.7c0.7,0.1,1.3,0,2,0.1C31,19.1,31.5,19.6,31.4,20.6z"/>
		<path fill="#FFFFFF" d="M3.3,13.6c0.8,0,1.6,0.2,2.3-0.1c0-0.1,0-0.2,0-0.2c0.1,0,0.2-0.1,0.2-0.2c0.1-0.7,0.3-1.5,0.4-2.2
			c0-0.2,0.1-0.4,0.1-0.6C6.4,10,6.5,9.7,6.5,9.4c0.1-0.5,0.4-0.6,0.9-0.6c1.1,0,2.1,0.2,3.2-0.1c0.1,0,0.3,0,0.4-0.1
			c0.2,0,0.4-0.1,0.6-0.2c1.9-0.8,3.1-3.2,2.9-5.5c-0.1-1.5-1.1-2.5-2.6-2.5c-1.9,0-3.8,0-5.7,0c-0.2,0-0.3,0-0.3,0.2
			C5.7,1,5.6,1.3,5.5,1.6c0,0.2-0.1,0.4-0.1,0.6l0,0c0,0.1,0,0.2,0,0.2C5.2,2.8,5.2,3.2,5.2,3.5C5.1,3.8,5,4.1,5,4.4
			C4.7,5.3,4.6,6.2,4.4,7.1c0,0.1,0,0.1,0,0.2C4.1,8.6,3.9,9.8,3.7,11c-0.1,0.1-0.1,0.3-0.1,0.5c-0.1,0.4-0.2,0.8-0.2,1.2
			c0,0.2-0.1,0.4-0.1,0.6C3.2,13.4,3.1,13.6,3.3,13.6z M7.8,3C7.9,2.5,8,2.3,8.6,2.4c0.7,0.1,1.3,0,2,0.1c1,0,1.4,0.6,1.3,1.6
			c-0.1,1.2-0.7,2-1.8,2.3c-1,0.1-1.9,0.1-2.9,0C7.4,5.2,7.6,4.1,7.8,3z M3.8,13.4C3.8,13.4,3.8,13.4,3.8,13.4c0,0,0,0-0.1,0
			C3.7,13.5,3.7,13.4,3.8,13.4z M3.7,13.5C3.7,13.5,3.7,13.5,3.7,13.5C3.7,13.5,3.7,13.5,3.7,13.5C3.7,13.5,3.7,13.5,3.7,13.5z"/>
		<path fill="#FFFFFF" d="M46.6,13.3c0.1-0.7,0.3-1.4,0.4-2.2c0-0.2,0.1-0.4,0.1-0.6c0.1-0.2,0.2-0.5,0.1-0.7c0.1-1.2,0.9-2,1.5-2.9
			c1.4-2.1,2.9-4.2,4.3-6.3c0,0,0.1-0.1,0-0.1c0,0,0,0,0,0c-0.9,0-1.8,0-2.7,0c-0.2,0.1-0.2,0.3-0.3,0.4c-1.1,1.7-2.1,3.5-3.3,5.3
			c-0.2-0.7-0.3-1.4-0.5-2c-0.3-1.2-0.5-2.5-1-3.7c-0.9-0.1-1.8,0-2.7-0.1c-0.2,0-0.2,0.1-0.1,0.3c0.8,2.5,1.6,5,2.3,7.5
			c0.1,0.3,0.1,0.6,0.1,1c-0.2,1.1-0.4,2.1-0.6,3.2c0,0.1,0,0.1,0,0.2c-0.2,0.2-0.1,0.4-0.2,0.6c-0.2,0.4-0.1,0.6,0.4,0.5
			c0.6,0,1.1,0,1.7,0C46.4,13.6,46.6,13.5,46.6,13.3z"/>
		<path fill="#FFFFFF" d="M79.9,19.3c-0.1-1.1-0.6-1.8-1.6-2.4c-1-0.6-2.1-0.6-3.2-0.5c-2.1,0.1-3.9,1.5-4.4,3.4
			c-0.1,0.2-0.2,0.3-0.1,0.5c-0.2,0.3-0.1,0.6-0.1,0.8c-0.1,0.2-0.1,0.5,0,0.7c0.1,1.3,1,1.8,2.1,2.2c1.1,0.3,2.2,0.6,3.3,1
			c1.2,0.4,1.4,1.6,0.4,2.4c-0.8,0.6-1.6,0.6-2.6,0.6c-0.9,0-1.6-0.4-1.9-1.3c0-0.8,0-0.9-0.8-0.8c-0.5,0-1.1-0.2-1.6,0.1
			c0,0,0,0.1,0,0.1c-0.1,0.5-0.1,0.9,0,1.4c0,0,0,0.1,0,0.1c0,0.1,0,0.3,0.1,0.4c0.4,1.4,1.8,2.2,3.5,2.2c0.4,0.1,0.9,0.1,1.3,0
			c2.4-0.1,4.5-1.7,5-4c0-0.1,0-0.2,0-0.2c0.1-0.1,0.1-0.3,0.1-0.5c0-0.3,0-0.6,0-0.8c-0.1-1.2-0.9-1.7-1.9-2.1
			c-1.2-0.4-2.6-0.7-3.7-1c-0.5-0.1-1.3-0.4-1.3-0.9c0-0.1,0-0.2,0-0.3c1-1.2,1.3-1.7,2.7-1.8c1.3,0,2,0.3,2.4,1.4
			c0,0.2-0.1,0.4,0.2,0.6c0.6,0,1.3,0,2,0c0.2,0,0.4,0,0.4-0.2C80,20,80,19.6,79.9,19.3z M79.2,25.8C79.2,25.7,79.2,25.8,79.2,25.8
			C79.2,25.8,79.2,25.8,79.2,25.8C79.2,25.8,79.2,25.8,79.2,25.8z"/>
		<path fill="#FFFFFF" d="M45.4,19.7c-0.1-1.3-0.7-2.4-1.8-2.7c-0.2-0.1-0.3-0.2-0.5-0.1c-0.1,0-0.2,0-0.3,0
			c-0.3-0.2-0.6-0.1-0.9-0.1c-1.9-0.1-3.8-0.1-5.8,0c-0.3,0.4-0.3,0.9-0.4,1.4c0,0.1,0,0.1,0,0.2c-0.4,1.8-0.8,3.6-1.1,5.4
			c0,0.1,0,0.1,0,0.2c-0.1,0.4-0.2,0.7-0.2,1.1c-0.2,0.8-0.3,1.6-0.5,2.4c0,0.2-0.1,0.4-0.1,0.6c0,0.1,0,0.1,0,0.2
			c-0.2,0.3-0.2,0.7-0.2,1.1c-0.1,0.2-0.2,0.5,0.2,0.4c0.6,0,1.2,0,1.8,0c0.3,0,0.4-0.2,0.3-0.4c0.3-0.9,0.4-1.9,0.6-2.8
			c0-0.1,0-0.1,0-0.2c0.2-0.3,0.2-0.7,0.2-1.1c0-0.1,0-0.1,0-0.2c0.2-0.2-0.1-0.7,0.4-0.7c1.6-0.2,2.4,0.2,3.1,1.7
			c0.5,1.2,1,2.4,1.4,3.6c0,0.1,0,0.2,0.1,0.2c0.8,0,1.6,0,2.4,0c0.3,0,0.2-0.2,0.1-0.3c-0.6-1.8-1.3-3.7-2.6-5.3
			c1.6-0.3,2.9-0.9,3.4-2.6c0.1-0.3,0.2-0.6,0.2-1C45.4,20.4,45.4,20.1,45.4,19.7z M41.4,22.2c-0.5,0.1-0.9,0.2-1.4,0.3
			c-0.8,0.1-1.6,0.1-2.5,0c-0.3-0.3,0.1-0.6,0-0.8c-0.1-0.2,0-0.4,0.1-0.6c0-0.2,0.1-0.5,0.2-0.7c0.1-0.5,0.3-1,0.4-1.4
			c1.2-0.1,2.4-0.1,3.6,0c0.9,0.3,1.2,0.6,1.2,1.3C43,21.1,42.3,22,41.4,22.2z"/>
		<rect x="56.3" y="22.3" fill="#FFFFFF" width="0" height="0"/>
		<polygon fill="#FFFFFF" points="56.3,22.3 56.3,22.3 56.3,22.3 		"/>
	</g>
</g>
</svg>
