<?xml version="1.0" encoding="utf-8"?>
<!-- Generator: Adobe Illustrator 18.1.1, SVG Export Plug-In . SVG Version: 6.00 Build 0)  -->
<svg version="1.1" id="Layer_1" xmlns="http://www.w3.org/2000/svg" xmlns:xlink="http://www.w3.org/1999/xlink" x="0px" y="0px"
	 viewBox="0 0 20 49" enable-background="new 0 0 20 49" xml:space="preserve">
<g>
	<path fill="#333333" d="M10,30c5,0,9,4,9,9s-4,9-9,9s-9-4-9-9S5,30,10,30 M10,29C4.5,29,0,33.5,0,39s4.5,10,10,10
		c5.5,0,10-4.5,10-10S15.5,29,10,29L10,29z"/>
</g>
<circle fill="#00A99D" cx="9.8" cy="39" r="5"/>
<g>
	<path fill="#333333" d="M10,1c5,0,9,4,9,9s-4,9-9,9s-9-4-9-9S5,1,10,1 M10,0C4.5,0,0,4.5,0,10s4.5,10,10,10c5.5,0,10-4.5,10-10
		S15.5,0,10,0L10,0z"/>
</g>
</svg>
