<?xml version="1.0" encoding="utf-8"?>
<!-- Generator: Adobe Illustrator 18.1.0, SVG Export Plug-In . SVG Version: 6.00 Build 0)  -->
<svg version="1.1" xmlns="http://www.w3.org/2000/svg" xmlns:xlink="http://www.w3.org/1999/xlink" x="0px" y="0px"
	 viewBox="0 0 135.1 15.8" enable-background="new 0 0 135.1 15.8" xml:space="preserve">
<g id="Слой_2" display="none">
</g>
<g id="Слой_1">
	<rect x="-225.6" y="-871" fill="#050A20" width="400" height="1120"/>
	<g>
		<g>
			<path fill="#FFFFFF" d="M44,9.1c-0.2-0.5-0.5-0.9-0.8-1.2c0.3-0.3,0.6-0.7,0.8-1.2c0.3-0.6,0.5-1.3,0.5-2.1c0-1.1-0.2-2-0.6-2.7
				c-0.2-0.4-0.6-0.8-1-1.1c-0.6-0.4-1.1-0.6-1.7-0.7C40.6,0,40.1,0,39.7,0h-5.5v0c-0.4,0-0.7,0-1.1,0c-0.3,0-0.6,0.1-1,0.3
				c-0.3,0.2-0.6,0.5-0.7,0.8c-0.2,0.5-0.3,0.8-0.3,1.1c0,0.3,0,0.6,0,0.9c0,1.4,0,5.5,0,6.2c0,1.3,0,2.6,0,3.3c0,0.4,0,0.7,0,1.1
				c0,0.3,0.1,0.6,0.3,1c0.2,0.3,0.5,0.6,0.8,0.7c0.5,0.2,0.8,0.3,1.1,0.3c0.3,0,0.6,0,0.9,0l0,0h5.5c0.6,0,1.3,0,2-0.2
				c0.4-0.1,0.8-0.3,1.1-0.5c0.4-0.3,0.7-0.6,1-1.1c0.4-0.7,0.6-1.6,0.6-2.7C44.4,10.4,44.2,9.7,44,9.1z M39.7,3.2
				c0.5,0,0.9,0,1.1,0.1c0.1,0,0.2,0.1,0.2,0.1c0,0,0,0,0,0c0.1,0.2,0.2,0.5,0.2,1.2c0,0.3-0.1,0.6-0.2,0.8
				c-0.1,0.2-0.2,0.4-0.4,0.6c-0.1,0.1-0.3,0.2-0.6,0.3c-0.3,0.1-0.7,0.1-1.2,0.1l0,0c-1.3,0-3.3,0-4.7,0c0-1.2,0-2.5,0-3.2H39.7z
				 M41,12.4C41,12.4,41,12.4,41,12.4c-0.1,0.1-0.2,0.1-0.4,0.2c-0.2,0-0.6,0.1-0.9,0.1h-5.5c0-0.7,0-1.9,0-3.2l0,0l0,0
				c0.2,0,0.3,0,0.5,0c1.4,0,3.1,0,4.3,0c0.4,0,0.9,0,1.2,0.1c0.3,0.1,0.5,0.2,0.6,0.3c0.2,0.2,0.3,0.3,0.4,0.6
				c0.1,0.2,0.2,0.5,0.2,0.8C41.3,11.9,41.1,12.2,41,12.4z"/>
			<path fill="#FFFFFF" d="M28.1,2.3c-0.3-0.9-1-1.5-1.7-1.8C25.7,0.1,25,0,24.2,0c-0.7,0-1.5,0-2.3,0c-0.8,0-1.6,0-2.3,0
				c-0.7,0-1.4,0.1-2.1,0.5c-0.7,0.3-1.4,1-1.7,1.8c-0.5,1.2-0.9,3-0.9,5.6c0,2.6,0.4,4.4,0.9,5.6c0.3,0.9,1,1.5,1.7,1.8
				c0.7,0.4,1.4,0.5,2.1,0.5h0.6h3.4h0.6c0.7,0,1.4-0.1,2.1-0.5c0.7-0.3,1.4-1,1.7-1.8c0.5-1.2,0.9-3,0.9-5.6
				C29,5.3,28.6,3.5,28.1,2.3z M25.2,12.3c0,0.1-0.1,0.1-0.2,0.2c-0.2,0.1-0.4,0.2-0.7,0.1h-3.9l0,0h-0.6c-0.3,0-0.6-0.1-0.7-0.1
				c-0.2-0.1-0.2-0.1-0.2-0.2c-0.3-0.7-0.7-2.1-0.7-4.4c0-2.3,0.4-3.7,0.7-4.4c0-0.1,0.1-0.1,0.2-0.2c0.2-0.1,0.4-0.2,0.7-0.1
				c0.2,0,0.4,0,0.6,0c1.1,0,2.3,0,3.4,0c0.2,0,0.4,0,0.6,0c0.3,0,0.6,0.1,0.7,0.1c0.2,0.1,0.2,0.1,0.2,0.2c0.3,0.7,0.7,2.1,0.7,4.4
				C25.8,10.2,25.5,11.5,25.2,12.3z"/>
			<path fill="#FFFFFF" d="M59.4,2.3c-0.3-0.9-1-1.5-1.7-1.8C57,0.1,56.3,0,55.6,0c-0.7,0-1.5,0-2.3,0c-0.8,0-1.6,0-2.3,0
				c-0.7,0-1.4,0.1-2.1,0.5c-0.7,0.3-1.4,1-1.7,1.8c-0.5,1.2-0.9,3-0.9,5.6c0,2.6,0.4,4.4,0.9,5.6c0.3,0.9,1,1.5,1.7,1.8
				c0.7,0.4,1.4,0.5,2.1,0.5h0.6H55h0.6c0.7,0,1.4-0.1,2.1-0.5c0.7-0.3,1.4-1,1.7-1.8c0.5-1.2,0.9-3,0.9-5.6
				C60.3,5.3,59.9,3.5,59.4,2.3z M56.5,12.3c0,0.1-0.1,0.1-0.2,0.2c-0.2,0.1-0.4,0.2-0.7,0.1h-3.9l0,0h-0.6c-0.3,0-0.6-0.1-0.7-0.1
				c-0.2-0.1-0.2-0.1-0.2-0.2c-0.3-0.7-0.7-2.1-0.7-4.4c0-2.3,0.4-3.7,0.7-4.4c0-0.1,0.1-0.1,0.2-0.2c0.2-0.1,0.4-0.2,0.7-0.1
				c0.2,0,0.4,0,0.6,0c1.1,0,2.3,0,3.4,0c0.2,0,0.4,0,0.6,0c0.3,0,0.6,0.1,0.7,0.1c0.2,0.1,0.2,0.1,0.2,0.2c0.3,0.7,0.7,2.1,0.7,4.4
				C57.2,10.2,56.8,11.5,56.5,12.3z"/>
			<path fill="#FFFFFF" d="M7.6,11.5C7.6,11.5,7.6,11.5,7.6,11.5l2.3,4.3h3.6l-2.6-5.1c0.1,0,0.1-0.1,0.2-0.1c0.7-0.4,1.4-1,1.9-1.9
				c0.5-0.9,0.8-1.9,0.8-3.2c0-1.5-0.3-2.6-0.8-3.5c-0.4-0.8-1.2-1.4-1.9-1.7C10.3,0.1,9.6,0,8.9,0C7.2,0,4.7,0,3.2,0
				C2.8,0,2.4,0,2.1,0c-0.3,0-0.6,0.1-1,0.3C0.7,0.5,0.5,0.8,0.3,1.1C0.1,1.6,0,1.9,0,2.2c0,0.3,0,0.6,0,0.9c0,1.6,0,12.6,0,12.6
				h3.2c0,0,0-2,0-4.3h4.1C7.3,11.5,7.4,11.5,7.6,11.5z M3.2,3.2c1.5,0,4.1,0,5.7,0c0.3,0,0.7,0.1,0.9,0.1C10,3.4,10,3.5,10,3.5
				c0.2,0.4,0.4,1,0.4,2c0,0.8-0.2,1.3-0.4,1.6C9.8,7.6,9.4,7.9,8.9,8.1C8.4,8.3,7.8,8.3,7.6,8.3c-0.1,0-0.1,0-0.1,0c0,0,0,0,0,0
				c0,0,0,0,0,0l0,0l-0.1,0H3.2C3.2,5.9,3.2,3.8,3.2,3.2z"/>
		</g>
		<path fill="#FFFFFF" d="M74.1,10.9c-0.9-1.2-2-2.3-2.9-3.1c0,0,0,0,0,0c0.5-0.4,1.1-0.9,1.6-1.5c0.6-0.6,1.1-1.2,1.6-2
			c0.4-0.7,0.8-1.5,0.8-2.5V1.4c0-0.8-0.6-1.4-1.4-1.4H73C72.5,0,72,0.4,72,0.9c0,0.6,0,1.3-0.4,1.8c0,0.1-0.1,0.1-0.1,0.2
			C71,3.8,70,4.7,69.2,5.4c-0.4,0.3-0.8,0.6-1.1,0.8c0,0,0,0,0,0c-0.2,0-0.4,0-0.6,0c-0.5,0-1.1,0-1.7,0c0-1.9,0-3.7,0-4.9
			c0-0.8-0.6-1.4-1.4-1.4H64c-0.8,0-1.4,0.6-1.4,1.4c0,3.1,0,9.9,0,12.9c0,0.8,0.6,1.4,1.4,1.4h0.3c0.8,0,1.4-0.6,1.4-1.4
			c0-1.2,0-3,0-4.9c0.6,0,1.2,0,1.6,0c0.3,0,0.5,0,0.7,0c0.5,0.4,1.3,1,2.1,1.8c0.6,0.5,1.1,1.1,1.4,1.6c0.4,0.5,0.5,0.9,0.5,1v0.5
			c0,0.8,0.6,1.4,1.4,1.4h0.3c0.8,0,1.4-0.6,1.4-1.4v-0.5C75.2,12.7,74.7,11.8,74.1,10.9z M102.6,6.4c-0.4-0.1-0.8-0.2-1.2-0.2h-4.2
			c-0.4,0-0.8,0-1-0.1C95.9,6.1,95.9,6,95.9,6c-0.1-0.2-0.3-0.6-0.3-1.3c0-0.7,0.1-1,0.3-1.3c0,0,0-0.1,0.3-0.2
			c0.2-0.1,0.6-0.1,1-0.1c1.6,0,4.3,0,6.1,0c0.8,0,1.4-0.6,1.4-1.4V0c0,0-5.4,0-7.5,0c-0.3,0-0.6,0-0.8,0c-0.8,0.1-1.6,0.3-2.2,0.8
			c-0.8,0.6-1.2,1.5-1.5,2.4c0,0,0,0.1,0,0.1c-0.2,0.9-0.2,1.9,0,2.8c0,0.1,0,0.2,0.1,0.3c0.2,0.8,0.6,1.5,1.2,2
			c0.7,0.6,1.7,0.9,2.6,1c0.2,0,0.4,0,0.7,0h3.7c0.5,0,1.1,0.2,1.2,0.7c0.1,0.5,0.1,1.1,0,1.6c0,0.2-0.1,0.3-0.2,0.5
			c-0.1,0.2-0.3,0.3-0.5,0.3c-1.5,0-4.7,0-6.9,0c-0.8,0-1.4,0.6-1.4,1.4v0.3c0,0.8,0.6,1.4,1.4,1.4c2.2,0,5.4,0,6.9,0
			c0.4,0,0.8,0,1.2-0.2c0.4-0.1,0.9-0.4,1.3-0.8c0.7-0.7,1.4-2,1.4-3.8c0-1.8-0.7-3.1-1.4-3.8C103.5,6.8,103.1,6.6,102.6,6.4z
			 M116.7,6.4c-0.4-0.1-0.8-0.2-1.2-0.2h-4.2c-0.4,0-0.8,0-1-0.1C110,6.1,110,6,110,6c-0.1-0.2-0.3-0.6-0.3-1.3c0-0.7,0.1-1,0.3-1.3
			c0,0,0-0.1,0.3-0.2c0.2-0.1,0.6-0.1,1-0.1c1.6,0,4.3,0,6.1,0c0.8,0,1.4-0.6,1.4-1.4V0c-1.6,0-5.4,0-7.5,0c-0.3,0-0.6,0-0.8,0
			c-0.8,0.1-1.6,0.3-2.2,0.8c-0.8,0.6-1.2,1.5-1.5,2.4c0,0,0,0.1,0,0.1c-0.2,0.9-0.2,1.9,0,2.8c0,0.1,0,0.2,0.1,0.3
			c0.2,0.8,0.6,1.5,1.2,2c0.7,0.6,1.7,0.9,2.6,1c0.2,0,0.4,0,0.7,0h3.7c0.5,0,1.1,0.2,1.2,0.7c0.1,0.5,0.1,1.1,0,1.6
			c-0.1,0.2-0.1,0.3-0.2,0.5c-0.1,0.2-0.3,0.3-0.5,0.3c-1.5,0-4.7,0-6.9,0c-0.8,0-1.4,0.6-1.4,1.4v0.3c0,0.8,0.6,1.4,1.4,1.4
			c2.2,0,5.4,0,6.9,0c0.4,0,0.8,0,1.2-0.2c0.4-0.1,0.9-0.4,1.3-0.8c0.7-0.7,1.4-2,1.4-3.8c0-1.8-0.7-3.1-1.4-3.8
			C117.6,6.8,117.2,6.6,116.7,6.4z M89.1,1.8c-0.5-0.7-1.2-1.2-1.9-1.5C86.7,0.1,86.1,0,85.5,0v0c0,0,0,0,0,0c-0.6,0-1.2,0-1.7,0
			c-0.4,0-0.9,0-1.4,0c0,0,0,0,0,0c-0.6,0-1.2,0.1-1.7,0.4c-0.7,0.3-1.4,0.7-1.9,1.5c-0.9,1.3-1.7,3.3-1.7,6.4c0,2.8,0,4.8,0,6.1
			c0,0.8,0.6,1.4,1.4,1.4h0.3c0.8,0,1.4-0.6,1.4-1.4c0-0.7,0-1.5,0-2.6h7.5c0,1.1,0,2,0,2.6c0,0.8,0.6,1.4,1.4,1.4h0.3
			c0.8,0,1.4-0.6,1.4-1.4c0-1.2,0-3.3,0-6.1C90.9,5.2,90,3.1,89.1,1.8z M87.7,8.5h-7.5c0-0.1,0-0.2,0-0.3c0-2.5,0.7-3.9,1.2-4.6
			c0.1-0.1,0.2-0.2,0.4-0.3c0.2-0.1,0.6-0.1,0.9-0.1c0.9,0,1.8,0,2.5,0c0.3,0,0.7,0.1,0.9,0.2c0.2,0.1,0.4,0.2,0.4,0.3
			c0.5,0.8,1.2,2.1,1.2,4.6C87.7,8.3,87.7,8.4,87.7,8.5z M135.1,8.2c0-3-0.9-5.1-1.7-6.3c-0.5-0.7-1.2-1.2-1.9-1.5
			c-0.6-0.2-1.2-0.3-1.7-0.4c0,0,0,0,0,0c-1.1,0-2,0-2.8,0c0,0,0,0,0,0c-0.1,0-0.2,0-0.3,0c0,0,0,0,0,0c-0.6,0-1.2,0.1-1.7,0.4
			c-0.7,0.3-1.4,0.7-1.9,1.5c-0.9,1.3-1.7,3.3-1.7,6.4c0,2.8,0,4.8,0,6.1c0,0.8,0.6,1.4,1.4,1.4h0.3c0.8,0,1.4-0.6,1.4-1.4
			c0-0.7,0-1.5,0-2.6h7.5c0,1.1,0,2,0,2.6c0,0.8,0.6,1.4,1.4,1.4h0.3c0.8,0,1.4-0.6,1.4-1.4C135.1,13.1,135.1,11,135.1,8.2z
			 M132,8.5h-7.5c0-0.1,0-0.2,0-0.3c0-2.5,0.7-3.9,1.2-4.6c0.1-0.1,0.2-0.2,0.4-0.3c0.2-0.1,0.6-0.1,0.9-0.1c0,0,0.1,0,0.1,0
			c0.7,0,1.5,0,2.5,0c0.3,0,0.7,0.1,0.9,0.2c0.2,0.1,0.4,0.2,0.4,0.3c0.5,0.8,1.2,2.1,1.2,4.6C132,8.3,132,8.4,132,8.5z"/>
	</g>
</g>
</svg>
